<?xml version="1.0" encoding="utf-8"?>
<!-- Generated by Mocodo 4.3.2 -->
<svg width="564" height="508" viewBox="0 0 564 508" xmlns="http://www.w3.org/2000/svg">
<rect x="0" y="0" width="564" height="508" fill="#f7f7f7" stroke="none" stroke-width="0"/>

<!-- Association SOUSCRIRE -->
<g>
	<line x1="351" y1="119" x2="211" y2="119" stroke="#4393c3" stroke-width="2"/>
	<line x1="72" y1="119" x2="211" y2="119" stroke="#4393c3" stroke-width="2"/>
	<g>
		<path d="M241 94 a14 14 90 0 1 14 14 V119 h-88 V108 a14 14 90 0 1 14 -14" fill="#92c5de" stroke="#92c5de" stroke-width="0"/>
		<path d="M255 119 v11 a14 14 90 0 1 -14 14 H181 a14 14 90 0 1 -14 -14 V119 H88" fill="#d1e5f0" stroke="#d1e5f0" stroke-width="0"/>
		<rect x="167" y="94" width="88" height="50" fill="none" rx="14" stroke="#4393c3" stroke-width="2"/>
		<line x1="167" y1="119" x2="255" y2="119" stroke="#4393c3" stroke-width="1"/>
		<text x="175" y="111.75" fill="#000000" font-family="Verdana" font-size="12">SOUSCRIRE</text>
	</g>
	<text x="261" y="136" fill="#b2182b" font-family="Verdana" font-size="12">1,1</text>
	<text x="140" y="136" fill="#b2182b" font-family="Verdana" font-size="12">0,N</text>
</g>

<!-- Association REGLER -->
<g>
	<line x1="489" y1="279" x2="489" y2="119" stroke="#4393c3" stroke-width="2"/>
	<line x1="351" y1="119" x2="489" y2="119" stroke="#4393c3" stroke-width="2"/>
	<g>
		<path d="M507 94 a14 14 90 0 1 14 14 V119 h-64 V108 a14 14 90 0 1 14 -14" fill="#92c5de" stroke="#92c5de" stroke-width="0"/>
		<path d="M521 119 v11 a14 14 90 0 1 -14 14 H471 a14 14 90 0 1 -14 -14 V119 H64" fill="#d1e5f0" stroke="#d1e5f0" stroke-width="0"/>
		<rect x="457" y="94" width="64" height="50" fill="none" rx="14" stroke="#4393c3" stroke-width="2"/>
		<line x1="457" y1="119" x2="521" y2="119" stroke="#4393c3" stroke-width="1"/>
		<text x="465" y="111.75" fill="#000000" font-family="Verdana" font-size="12">REGLER</text>
	</g>
	<text x="494" y="212" fill="#b2182b" font-family="Verdana" font-size="12">1,1</text>
	<text x="420" y="136" fill="#b2182b" font-family="Verdana" font-size="12">0,N</text>
</g>

<!-- Association DECLARER -->
<g>
	<line x1="351" y1="431" x2="351" y2="279" stroke="#4393c3" stroke-width="2"/>
	<line x1="351" y1="119" x2="351" y2="279" stroke="#4393c3" stroke-width="2"/>
	<g>
		<path d="M377 254 a14 14 90 0 1 14 14 V279 h-80 V268 a14 14 90 0 1 14 -14" fill="#92c5de" stroke="#92c5de" stroke-width="0"/>
		<path d="M391 279 v11 a14 14 90 0 1 -14 14 H325 a14 14 90 0 1 -14 -14 V279 H80" fill="#d1e5f0" stroke="#d1e5f0" stroke-width="0"/>
		<rect x="311" y="254" width="80" height="50" fill="none" rx="14" stroke="#4393c3" stroke-width="2"/>
		<line x1="311" y1="279" x2="391" y2="279" stroke="#4393c3" stroke-width="1"/>
		<text x="319" y="271.75" fill="#000000" font-family="Verdana" font-size="12">DECLARER</text>
	</g>
	<text x="356" y="355" fill="#b2182b" font-family="Verdana" font-size="12">1,1</text>
	<text x="356" y="212" fill="#b2182b" font-family="Verdana" font-size="12">0,N</text>
</g>

<!-- Entity AB_CLIENT -->
<g>
	<g>
		<rect x="9" y="9" width="126" height="25" fill="#f4a582" stroke="none" stroke-width="0" opacity="1"/>
		<rect x="9" y="34" width="126" height="195" fill="#fddbc7" stroke="none" stroke-width="0" opacity="1"/>
		<rect x="9" y="9" width="126" height="220" fill="none" stroke="#d6604d" stroke-width="2" opacity="1"/>
		<line x1="9" y1="34" x2="135" y2="34" stroke="#d6604d" stroke-width="1"/>
	</g>
	<text x="38" y="26.75" fill="#000000" font-family="Verdana" font-size="12">AB_CLIENT</text>
	<text x="14" y="51.8" fill="#000000" font-family="Verdana" font-size="12">ab_client_id</text>
	<line x1="14" y1="54" x2="88" y2="54" stroke="#000000" stroke-width="1"/>
	<text x="14" y="68.8" fill="#000000" font-family="Verdana" font-size="12">ab_nom</text>
	<text x="14" y="85.8" fill="#000000" font-family="Verdana" font-size="12">ab_prenom</text>
	<text x="14" y="102.8" fill="#000000" font-family="Verdana" font-size="12">ab_date_naissance</text>
	<text x="14" y="119.8" fill="#000000" font-family="Verdana" font-size="12">ab_email</text>
	<text x="14" y="136.8" fill="#000000" font-family="Verdana" font-size="12">ab_telephone</text>
	<text x="14" y="153.8" fill="#000000" font-family="Verdana" font-size="12">ab_adresse</text>
	<text x="14" y="170.8" fill="#000000" font-family="Verdana" font-size="12">ab_code_postal</text>
	<text x="14" y="187.8" fill="#000000" font-family="Verdana" font-size="12">ab_num_fiscal</text>
	<text x="14" y="204.8" fill="#000000" font-family="Verdana" font-size="12">ab_date_creation</text>
	<text x="14" y="221.8" fill="#000000" font-family="Verdana" font-size="12">ab_statut_client</text>
</g>

<!-- Entity AB_CONTRAT -->
<g>
	<g>
		<rect x="287" y="43" width="128" height="25" fill="#f4a582" stroke="none" stroke-width="0" opacity="1"/>
		<rect x="287" y="68" width="128" height="127" fill="#fddbc7" stroke="none" stroke-width="0" opacity="1"/>
		<rect x="287" y="43" width="128" height="152" fill="none" stroke="#d6604d" stroke-width="2" opacity="1"/>
		<line x1="287" y1="68" x2="415" y2="68" stroke="#d6604d" stroke-width="1"/>
	</g>
	<text x="310" y="60.75" fill="#000000" font-family="Verdana" font-size="12">AB_CONTRAT</text>
	<text x="292" y="85.8" fill="#000000" font-family="Verdana" font-size="12">ab_policy_number</text>
	<line x1="292" y1="88" x2="404" y2="88" stroke="#000000" stroke-width="1"/>
	<text x="292" y="102.8" fill="#000000" font-family="Verdana" font-size="12">ab_type_assurance</text>
	<text x="292" y="119.8" fill="#000000" font-family="Verdana" font-size="12">ab_date_debut</text>
	<text x="292" y="136.8" fill="#000000" font-family="Verdana" font-size="12">ab_date_fin</text>
	<text x="292" y="153.8" fill="#000000" font-family="Verdana" font-size="12">ab_prime_annuelle</text>
	<text x="292" y="170.8" fill="#000000" font-family="Verdana" font-size="12">ab_statut_contrat</text>
	<text x="292" y="187.8" fill="#000000" font-family="Verdana" font-size="12">ab_agence_id</text>
</g>

<!-- Entity AB_PAIEMENT -->
<g>
	<g>
		<rect x="423" y="220" width="132" height="25" fill="#f4a582" stroke="none" stroke-width="0" opacity="1"/>
		<rect x="423" y="245" width="132" height="93" fill="#fddbc7" stroke="none" stroke-width="0" opacity="1"/>
		<rect x="423" y="220" width="132" height="118" fill="none" stroke="#d6604d" stroke-width="2" opacity="1"/>
		<line x1="423" y1="245" x2="555" y2="245" stroke="#d6604d" stroke-width="1"/>
	</g>
	<text x="446" y="237.75" fill="#000000" font-family="Verdana" font-size="12">AB_PAIEMENT</text>
	<text x="428" y="262.8" fill="#000000" font-family="Verdana" font-size="12">ab_payment_id</text>
	<line x1="428" y1="265" x2="523" y2="265" stroke="#000000" stroke-width="1"/>
	<text x="428" y="279.8" fill="#000000" font-family="Verdana" font-size="12">ab_date_paiement</text>
	<text x="428" y="296.8" fill="#000000" font-family="Verdana" font-size="12">ab_montant</text>
	<text x="428" y="313.8" fill="#000000" font-family="Verdana" font-size="12">ab_mode_paiement</text>
	<text x="428" y="330.8" fill="#000000" font-family="Verdana" font-size="12">ab_policy_number</text>
</g>

<!-- Entity AB_SINISTRE -->
<g>
	<g>
		<rect x="285" y="363" width="132" height="25" fill="#f4a582" stroke="none" stroke-width="0" opacity="1"/>
		<rect x="285" y="388" width="132" height="111" fill="#fddbc7" stroke="none" stroke-width="0" opacity="1"/>
		<rect x="285" y="363" width="132" height="136" fill="none" stroke="#d6604d" stroke-width="2" opacity="1"/>
		<line x1="285" y1="388" x2="417" y2="388" stroke="#d6604d" stroke-width="1"/>
	</g>
	<text x="309" y="380.75" fill="#000000" font-family="Verdana" font-size="12">AB_SINISTRE</text>
	<text x="290" y="405.8" fill="#000000" font-family="Verdana" font-size="12">ab_claim_id</text>
	<line x1="290" y1="408" x2="363" y2="408" stroke="#000000" stroke-width="1"/>
	<text x="290" y="422.8" fill="#000000" font-family="Verdana" font-size="12">ab_date_sinistre</text>
	<text x="290" y="439.8" fill="#000000" font-family="Verdana" font-size="12">ab_montant_estime</text>
	<text x="290" y="456.8" fill="#000000" font-family="Verdana" font-size="12">ab_statut_sinistre</text>
	<text x="290" y="473.8" fill="#000000" font-family="Verdana" font-size="12">ab_description</text>
	<text x="290" y="490.8" fill="#000000" font-family="Verdana" font-size="12">ab_policy_number</text>
</g>
</svg>