<?xml version="1.0" encoding="utf-8"?>
<!-- Generated by Mocodo 4.3.2 -->
<svg width="508" height="594" viewBox="0 0 508 594" xmlns="http://www.w3.org/2000/svg">
<rect x="0" y="0" width="508" height="594" fill="#f7f7f7" stroke="none" stroke-width="0"/>

<!-- Association SOUSCRIRE -->
<g>
	<line x1="261" y1="323" x2="261" y2="111" stroke="#4393c3" stroke-width="2"/>
	<line x1="99" y1="111" x2="261" y2="111" stroke="#4393c3" stroke-width="2"/>
	<g>
		<path d="M291 86 a14 14 90 0 1 14 14 V111 h-88 V100 a14 14 90 0 1 14 -14" fill="#92c5de" stroke="#92c5de" stroke-width="0"/>
		<path d="M305 111 v11 a14 14 90 0 1 -14 14 H231 a14 14 90 0 1 -14 -14 V111 H88" fill="#d1e5f0" stroke="#d1e5f0" stroke-width="0"/>
		<rect x="217" y="86" width="88" height="50" fill="none" rx="14" stroke="#4393c3" stroke-width="2"/>
		<line x1="217" y1="111" x2="305" y2="111" stroke="#4393c3" stroke-width="1"/>
		<text x="225" y="103.75" fill="#000000" font-family="Verdana" font-size="12">SOUSCRIRE</text>
	</g>
	<text x="266" y="230" fill="#b2182b" font-family="Verdana" font-size="12">1,1</text>
	<text x="183" y="128" fill="#b2182b" font-family="Verdana" font-size="12">0,N</text>
</g>

<!-- Association REGLER -->
<g>
	<line x1="99" y1="509" x2="99" y2="323" stroke="#4393c3" stroke-width="2"/>
	<line x1="261" y1="323" x2="99" y2="323" stroke="#4393c3" stroke-width="2"/>
	<g>
		<path d="M117 298 a14 14 90 0 1 14 14 V323 h-64 V312 a14 14 90 0 1 14 -14" fill="#92c5de" stroke="#92c5de" stroke-width="0"/>
		<path d="M131 323 v11 a14 14 90 0 1 -14 14 H81 a14 14 90 0 1 -14 -14 V323 H64" fill="#d1e5f0" stroke="#d1e5f0" stroke-width="0"/>
		<rect x="67" y="298" width="64" height="50" fill="none" rx="14" stroke="#4393c3" stroke-width="2"/>
		<line x1="67" y1="323" x2="131" y2="323" stroke="#4393c3" stroke-width="1"/>
		<text x="75" y="315.75" fill="#000000" font-family="Verdana" font-size="12">REGLER</text>
	</g>
	<text x="104" y="433" fill="#b2182b" font-family="Verdana" font-size="12">1,1</text>
	<text x="155" y="340" fill="#b2182b" font-family="Verdana" font-size="12">0,N</text>
</g>

<!-- Association DECLARER -->
<g>
	<line x1="416" y1="509" x2="261" y2="509" stroke="#4393c3" stroke-width="2"/>
	<line x1="261" y1="323" x2="261" y2="509" stroke="#4393c3" stroke-width="2"/>
	<g>
		<path d="M287 484 a14 14 90 0 1 14 14 V509 h-80 V498 a14 14 90 0 1 14 -14" fill="#92c5de" stroke="#92c5de" stroke-width="0"/>
		<path d="M301 509 v11 a14 14 90 0 1 -14 14 H235 a14 14 90 0 1 -14 -14 V509 H80" fill="#d1e5f0" stroke="#d1e5f0" stroke-width="0"/>
		<rect x="221" y="484" width="80" height="50" fill="none" rx="14" stroke="#4393c3" stroke-width="2"/>
		<line x1="221" y1="509" x2="301" y2="509" stroke="#4393c3" stroke-width="1"/>
		<text x="229" y="501.75" fill="#000000" font-family="Verdana" font-size="12">DECLARER</text>
	</g>
	<text x="307" y="526" fill="#b2182b" font-family="Verdana" font-size="12">1,1</text>
	<text x="266" y="425" fill="#b2182b" font-family="Verdana" font-size="12">0,N</text>
</g>

<!-- Entity AP_USERS -->
<g>
	<g>
		<rect x="20" y="9" width="158" height="25" fill="#f4a582" stroke="none" stroke-width="0" opacity="1"/>
		<rect x="20" y="34" width="158" height="179" fill="#fddbc7" stroke="none" stroke-width="0" opacity="1"/>
		<rect x="20" y="9" width="158" height="204" fill="none" stroke="#d6604d" stroke-width="2" opacity="1"/>
		<line x1="20" y1="34" x2="178" y2="34" stroke="#d6604d" stroke-width="1"/>
	</g>
	<text x="67" y="26.75" fill="#000000" font-family="Verdana" font-size="12">AP_USERS</text>
	<text x="25" y="51.8" fill="#000000" font-family="Verdana" font-size="12">AP_USER_ID</text>
	<line x1="25" y1="54" x2="104" y2="54" stroke="#000000" stroke-width="1"/>
	<text x="25" y="68.8" fill="#000000" font-family="Verdana" font-size="12">AP_FULL_NAME</text>
	<text x="25" y="85.8" fill="#000000" font-family="Verdana" font-size="12">AP_BIRTH_DATE</text>
	<text x="25" y="102.8" fill="#000000" font-family="Verdana" font-size="12">AP_MAIL_ADDRESS</text>
	<text x="25" y="119.8" fill="#000000" font-family="Verdana" font-size="12">AP_PHONE_NUMBER</text>
	<text x="25" y="136.8" fill="#000000" font-family="Verdana" font-size="12">AP_STREET_ADDRESS</text>
	<text x="25" y="153.8" fill="#000000" font-family="Verdana" font-size="12">AP_ZIP_CODE</text>
	<text x="25" y="170.8" fill="#000000" font-family="Verdana" font-size="12">AP_CREATED_AT</text>
	<text x="25" y="187.8" fill="#000000" font-family="Verdana" font-size="12">AP_CUSTOMER_STATUS</text>
	<text x="25" y="204.8" fill="#000000" font-family="Verdana" font-size="12">AP_LOYALTY_SCORE</text>
</g>

<!-- Entity AP_CONTRACTS -->
<g>
	<g>
		<rect x="182" y="238" width="158" height="25" fill="#f4a582" stroke="none" stroke-width="0" opacity="1"/>
		<rect x="182" y="263" width="158" height="145" fill="#fddbc7" stroke="none" stroke-width="0" opacity="1"/>
		<rect x="182" y="238" width="158" height="170" fill="none" stroke="#d6604d" stroke-width="2" opacity="1"/>
		<line x1="182" y1="263" x2="340" y2="263" stroke="#d6604d" stroke-width="1"/>
	</g>
	<text x="212" y="255.75" fill="#000000" font-family="Verdana" font-size="12">AP_CONTRACTS</text>
	<text x="187" y="280.8" fill="#000000" font-family="Verdana" font-size="12">AP_CONTRACT_REF</text>
	<line x1="187" y1="283" x2="308" y2="283" stroke="#000000" stroke-width="1"/>
	<text x="187" y="297.8" fill="#000000" font-family="Verdana" font-size="12">AP_PRODUCT_CODE</text>
	<text x="187" y="314.8" fill="#000000" font-family="Verdana" font-size="12">AP_START_DATE</text>
	<text x="187" y="331.8" fill="#000000" font-family="Verdana" font-size="12">AP_END_DATE</text>
	<text x="187" y="348.8" fill="#000000" font-family="Verdana" font-size="12">AP_MONTHLY_PREMIUM</text>
	<text x="187" y="365.8" fill="#000000" font-family="Verdana" font-size="12">AP_CONTRACT_STATE</text>
	<text x="187" y="382.8" fill="#000000" font-family="Verdana" font-size="12">AP_BROKER_CODE</text>
	<text x="187" y="399.8" fill="#000000" font-family="Verdana" font-size="12">AP_USER_ID</text>
</g>

<!-- Entity AP_PAYMENTS -->
<g>
	<g>
		<rect x="9" y="441" width="180" height="25" fill="#f4a582" stroke="none" stroke-width="0" opacity="1"/>
		<rect x="9" y="466" width="180" height="111" fill="#fddbc7" stroke="none" stroke-width="0" opacity="1"/>
		<rect x="9" y="441" width="180" height="136" fill="none" stroke="#d6604d" stroke-width="2" opacity="1"/>
		<line x1="9" y1="466" x2="189" y2="466" stroke="#d6604d" stroke-width="1"/>
	</g>
	<text x="55" y="458.75" fill="#000000" font-family="Verdana" font-size="12">AP_PAYMENTS</text>
	<text x="14" y="483.8" fill="#000000" font-family="Verdana" font-size="12">AP_PAYMENT_REF</text>
	<line x1="14" y1="486" x2="125" y2="486" stroke="#000000" stroke-width="1"/>
	<text x="14" y="500.8" fill="#000000" font-family="Verdana" font-size="12">AP_PAYMENT_DATETIME</text>
	<text x="14" y="517.8" fill="#000000" font-family="Verdana" font-size="12">AP_AMOUNT_PAID</text>
	<text x="14" y="534.8" fill="#000000" font-family="Verdana" font-size="12">AP_PAYMENT_CHANNEL</text>
	<text x="14" y="551.8" fill="#000000" font-family="Verdana" font-size="12">AP_TRANSACTION_STATUS</text>
	<text x="14" y="568.8" fill="#000000" font-family="Verdana" font-size="12">AP_CONTRACT_REF</text>
</g>

<!-- Entity AP_CLAIMS -->
<g>
	<g>
		<rect x="333" y="433" width="166" height="25" fill="#f4a582" stroke="none" stroke-width="0" opacity="1"/>
		<rect x="333" y="458" width="166" height="127" fill="#fddbc7" stroke="none" stroke-width="0" opacity="1"/>
		<rect x="333" y="433" width="166" height="152" fill="none" stroke="#d6604d" stroke-width="2" opacity="1"/>
		<line x1="333" y1="458" x2="499" y2="458" stroke="#d6604d" stroke-width="1"/>
	</g>
	<text x="381" y="450.75" fill="#000000" font-family="Verdana" font-size="12">AP_CLAIMS</text>
	<text x="338" y="475.8" fill="#000000" font-family="Verdana" font-size="12">AP_SINISTRE_NUM</text>
	<line x1="338" y1="478" x2="456" y2="478" stroke="#000000" stroke-width="1"/>
	<text x="338" y="492.8" fill="#000000" font-family="Verdana" font-size="12">AP_INCIDENT_DATE</text>
	<text x="338" y="509.8" fill="#000000" font-family="Verdana" font-size="12">AP_ESTIMATED_AMOUNT</text>
	<text x="338" y="526.8" fill="#000000" font-family="Verdana" font-size="12">AP_CLAIM_STATUS</text>
	<text x="338" y="543.8" fill="#000000" font-family="Verdana" font-size="12">AP_CLAIM_COMMENT</text>
	<text x="338" y="560.8" fill="#000000" font-family="Verdana" font-size="12">AP_FRAUD_SCORE</text>
	<text x="338" y="577.8" fill="#000000" font-family="Verdana" font-size="12">AP_CONTRACT_REF</text>
</g>
</svg>